<mxfile host="app.diagrams.net" agent="Mozilla/5.0 (Windows NT 10.0; Win64; x64; rv:141.0) Gecko/20100101 Firefox/141.0" version="28.0.9">
  <diagram name="Page-1" id="wznVCObP0M_tSOf37h-Q">
    <mxGraphModel dx="1426" dy="751" grid="1" gridSize="10" guides="1" tooltips="1" connect="1" arrows="1" fold="1" page="1" pageScale="1" pageWidth="700" pageHeight="1000" math="0" shadow="0">
      <root>
        <mxCell id="0" />
        <mxCell id="1" parent="0" />
        <mxCell id="JtyEeGDUWGG5GrNTImme-120" value="" style="rounded=0;whiteSpace=wrap;html=1;strokeColor=#000000;" parent="1" vertex="1">
          <mxGeometry y="20" width="700" height="750" as="geometry" />
        </mxCell>
        <mxCell id="JtyEeGDUWGG5GrNTImme-136" value="&lt;div&gt;&lt;span style=&quot;color: rgb(255, 255, 255);&quot;&gt;Cache&lt;/span&gt;&lt;/div&gt;" style="ellipse;shape=cloud;whiteSpace=wrap;html=1;fillColor=#000000;" parent="1" vertex="1">
          <mxGeometry x="58.2" y="419" width="120" height="80" as="geometry" />
        </mxCell>
        <mxCell id="JtyEeGDUWGG5GrNTImme-2" value="" style="shape=umlActor;verticalLabelPosition=bottom;verticalAlign=top;html=1;outlineConnect=0;" parent="1" vertex="1">
          <mxGeometry x="99.9" y="51.5" width="50" height="100" as="geometry" />
        </mxCell>
        <mxCell id="JtyEeGDUWGG5GrNTImme-11" value="" style="endArrow=classic;html=1;rounded=0;shape=flexArrow;fillColor=#000000;" parent="1" edge="1">
          <mxGeometry width="50" height="50" relative="1" as="geometry">
            <mxPoint x="150" y="100" as="sourcePoint" />
            <mxPoint x="270" y="100" as="targetPoint" />
          </mxGeometry>
        </mxCell>
        <mxCell id="JtyEeGDUWGG5GrNTImme-12" value="Push to Main" style="text;strokeColor=none;fillColor=none;align=left;verticalAlign=middle;spacingLeft=4;spacingRight=4;overflow=hidden;points=[[0,0.5],[1,0.5]];portConstraint=eastwest;rotatable=0;whiteSpace=wrap;html=1;" parent="1" vertex="1">
          <mxGeometry x="163.65" y="70" width="80.2" height="30" as="geometry" />
        </mxCell>
        <mxCell id="JtyEeGDUWGG5GrNTImme-16" value="Github Actions Runner Initiates my Github Workflow" style="text;strokeColor=none;fillColor=none;align=left;verticalAlign=middle;spacingLeft=4;spacingRight=4;overflow=hidden;points=[[0,0.5],[1,0.5]];portConstraint=eastwest;rotatable=0;whiteSpace=wrap;html=1;" parent="1" vertex="1">
          <mxGeometry x="389" y="47" width="140" height="50" as="geometry" />
        </mxCell>
        <mxCell id="JtyEeGDUWGG5GrNTImme-19" value="" style="curved=1;endArrow=classic;html=1;rounded=0;shape=flexArrow;fillColor=#000000;" parent="1" edge="1">
          <mxGeometry width="50" height="50" relative="1" as="geometry">
            <mxPoint x="560" y="160" as="sourcePoint" />
            <mxPoint x="120" y="220" as="targetPoint" />
            <Array as="points">
              <mxPoint x="560" y="180" />
              <mxPoint x="120" y="180" />
            </Array>
          </mxGeometry>
        </mxCell>
        <mxCell id="JtyEeGDUWGG5GrNTImme-22" value="" style="shape=flexArrow;endArrow=classic;html=1;rounded=0;fillColor=#000000;" parent="1" edge="1">
          <mxGeometry width="50" height="50" relative="1" as="geometry">
            <mxPoint x="162.99999999999997" y="280" as="sourcePoint" />
            <mxPoint x="283" y="280.34000000000003" as="targetPoint" />
          </mxGeometry>
        </mxCell>
        <mxCell id="JtyEeGDUWGG5GrNTImme-30" value="2. Empty S3 Bucket" style="text;strokeColor=none;fillColor=none;align=left;verticalAlign=middle;spacingLeft=4;spacingRight=4;overflow=hidden;points=[[0,0.5],[1,0.5]];portConstraint=eastwest;rotatable=0;whiteSpace=wrap;html=1;" parent="1" vertex="1">
          <mxGeometry x="149.9" y="250" width="119.9" height="30" as="geometry" />
        </mxCell>
        <mxCell id="JtyEeGDUWGG5GrNTImme-32" value="&lt;div&gt;3. Upload Repo Files to S3 Bucket&lt;/div&gt;" style="text;strokeColor=none;fillColor=none;align=left;verticalAlign=middle;spacingLeft=4;spacingRight=4;overflow=hidden;points=[[0,0.5],[1,0.5]];portConstraint=eastwest;rotatable=0;whiteSpace=wrap;html=1;" parent="1" vertex="1">
          <mxGeometry x="380" y="240" width="120" height="30" as="geometry" />
        </mxCell>
        <mxCell id="JtyEeGDUWGG5GrNTImme-89" value="" style="curved=1;endArrow=classic;html=1;rounded=0;shape=flexArrow;fillColor=#000000;" parent="1" edge="1">
          <mxGeometry width="50" height="50" relative="1" as="geometry">
            <mxPoint x="520" y="320" as="sourcePoint" />
            <mxPoint x="120" y="400" as="targetPoint" />
            <Array as="points">
              <mxPoint x="500" y="350" />
              <mxPoint x="120" y="350" />
            </Array>
          </mxGeometry>
        </mxCell>
        <mxCell id="JtyEeGDUWGG5GrNTImme-90" value="" style="shape=flexArrow;endArrow=classic;html=1;rounded=0;strokeColor=#000000;fillColor=#000000;" parent="1" edge="1">
          <mxGeometry width="50" height="50" relative="1" as="geometry">
            <mxPoint x="330" y="350" as="sourcePoint" />
            <mxPoint x="330" y="400" as="targetPoint" />
          </mxGeometry>
        </mxCell>
        <mxCell id="JtyEeGDUWGG5GrNTImme-91" value="" style="verticalLabelPosition=bottom;verticalAlign=top;html=1;shape=mxgraph.basic.no_symbol;fillColor=#FF0000;strokeColor=#FF0000;fontColor=#ffffff;shadow=0;perimeterSpacing=0;gradientColor=none;gradientDirection=radial;dashed=1;opacity=75;" parent="1" vertex="1">
          <mxGeometry x="68.2" y="409" width="100" height="100" as="geometry" />
        </mxCell>
        <mxCell id="JtyEeGDUWGG5GrNTImme-93" value="4. Invalidate CloudFront Cache" style="text;strokeColor=none;fillColor=none;align=left;verticalAlign=middle;spacingLeft=4;spacingRight=4;overflow=hidden;points=[[0,0.5],[1,0.5]];portConstraint=eastwest;rotatable=0;whiteSpace=wrap;html=1;" parent="1" vertex="1">
          <mxGeometry x="340" y="351" width="181" height="30" as="geometry" />
        </mxCell>
        <mxCell id="JtyEeGDUWGG5GrNTImme-94" value="5. Invalidate Cloudflare Cache" style="text;strokeColor=none;fillColor=none;align=left;verticalAlign=middle;spacingLeft=4;spacingRight=4;overflow=hidden;points=[[0,0.5],[1,0.5]];portConstraint=eastwest;rotatable=0;whiteSpace=wrap;html=1;" parent="1" vertex="1">
          <mxGeometry x="121.85" y="351" width="176" height="30" as="geometry" />
        </mxCell>
        <mxCell id="JtyEeGDUWGG5GrNTImme-95" value="" style="shape=flexArrow;endArrow=classic;html=1;rounded=0;fillColor=#000000;" parent="1" edge="1" target="JtyEeGDUWGG5GrNTImme-112">
          <mxGeometry width="50" height="50" relative="1" as="geometry">
            <mxPoint x="117.78" y="520" as="sourcePoint" />
            <mxPoint x="118.16" y="620" as="targetPoint" />
          </mxGeometry>
        </mxCell>
        <mxCell id="JtyEeGDUWGG5GrNTImme-98" value="" style="sketch=0;outlineConnect=0;fontColor=#232F3E;gradientColor=none;fillColor=#000000;strokeColor=none;dashed=0;verticalLabelPosition=bottom;verticalAlign=top;align=center;html=1;fontSize=12;fontStyle=0;aspect=fixed;pointerEvents=1;shape=mxgraph.aws4.bucket;" parent="1" vertex="1">
          <mxGeometry x="287.41999999999996" y="230" width="85.58" height="89" as="geometry" />
        </mxCell>
        <mxCell id="JtyEeGDUWGG5GrNTImme-99" value="" style="sketch=0;outlineConnect=0;fontColor=#232F3E;gradientColor=none;fillColor=#000000;strokeColor=none;dashed=0;verticalLabelPosition=bottom;verticalAlign=top;align=center;html=1;fontSize=12;fontStyle=0;aspect=fixed;pointerEvents=1;shape=mxgraph.aws4.bucket_with_objects;" parent="1" vertex="1">
          <mxGeometry x="516.97" y="225.25" width="86.06" height="89.5" as="geometry" />
        </mxCell>
        <mxCell id="JtyEeGDUWGG5GrNTImme-103" value="" style="sketch=0;aspect=fixed;pointerEvents=1;shadow=0;dashed=0;html=1;strokeColor=none;labelPosition=center;verticalLabelPosition=bottom;verticalAlign=top;align=center;fillColor=#000000;shape=mxgraph.mscae.enterprise.lock" parent="1" vertex="1">
          <mxGeometry x="87" y="230" width="62.4" height="80" as="geometry" />
        </mxCell>
        <mxCell id="JtyEeGDUWGG5GrNTImme-105" value="&lt;div&gt;&lt;font style=&quot;font-size: 11px;&quot;&gt;CloudFront&lt;/font&gt;&amp;nbsp;Domain:&lt;/div&gt;&lt;div&gt;d6w1qchzjim5c.cloudfront.net&lt;/div&gt;" style="html=1;whiteSpace=wrap;strokeColor=none;fillColor=light-dark(#000000, #3ea6f6);labelPosition=center;verticalLabelPosition=middle;verticalAlign=top;align=center;fontSize=12;outlineConnect=0;spacingTop=-6;fontColor=#FFFFFF;sketch=0;shape=mxgraph.sitemap.cloud;" parent="1" vertex="1">
          <mxGeometry x="279.8" y="620" width="227.5" height="130" as="geometry" />
        </mxCell>
        <mxCell id="JtyEeGDUWGG5GrNTImme-108" value="" style="verticalLabelPosition=bottom;html=1;verticalAlign=top;align=center;strokeColor=#C73500;fillColor=#fa6800;shape=mxgraph.azure.git_repository;fontColor=#000000;" parent="1" vertex="1">
          <mxGeometry x="279.8" y="50" width="100" height="103" as="geometry" />
        </mxCell>
        <mxCell id="JtyEeGDUWGG5GrNTImme-109" value="Github Repo" style="text;strokeColor=none;fillColor=none;align=left;verticalAlign=middle;spacingLeft=4;spacingRight=4;overflow=hidden;points=[[0,0.5],[1,0.5]];portConstraint=eastwest;rotatable=0;whiteSpace=wrap;html=1;" parent="1" vertex="1">
          <mxGeometry x="293" y="27" width="80" height="30" as="geometry" />
        </mxCell>
        <mxCell id="JtyEeGDUWGG5GrNTImme-112" value="&lt;div&gt;Cloudflare Domain:&lt;/div&gt;&lt;div&gt;schombe.me&lt;/div&gt;" style="ellipse;shape=cloud;whiteSpace=wrap;html=1;fillColor=#F6821F;fontColor=#000000;strokeColor=#C73500;" parent="1" vertex="1">
          <mxGeometry x="45.7" y="630" width="145" height="110" as="geometry" />
        </mxCell>
        <mxCell id="JtyEeGDUWGG5GrNTImme-113" value="" style="shape=flexArrow;endArrow=classic;html=1;rounded=0;fillColor=#000000;" parent="1" edge="1">
          <mxGeometry width="50" height="50" relative="1" as="geometry">
            <mxPoint x="189.79999999999998" y="666" as="sourcePoint" />
            <mxPoint x="269.8" y="666.31" as="targetPoint" />
          </mxGeometry>
        </mxCell>
        <mxCell id="JtyEeGDUWGG5GrNTImme-122" value="1. Authenticate With AWS via IAM User" style="text;html=1;align=center;verticalAlign=middle;whiteSpace=wrap;rounded=0;" parent="1" vertex="1">
          <mxGeometry x="197" y="185" width="267" height="30" as="geometry" />
        </mxCell>
        <mxCell id="JtyEeGDUWGG5GrNTImme-137" value="&lt;div&gt;&lt;span style=&quot;color: light-dark(rgb(255, 255, 255), rgb(237, 237, 237));&quot;&gt;Cache&lt;/span&gt;&lt;/div&gt;" style="ellipse;shape=cloud;whiteSpace=wrap;html=1;fillColor=#000000;" parent="1" vertex="1">
          <mxGeometry x="269.8" y="419" width="120" height="80" as="geometry" />
        </mxCell>
        <mxCell id="JtyEeGDUWGG5GrNTImme-138" value="" style="verticalLabelPosition=bottom;verticalAlign=top;html=1;shape=mxgraph.basic.no_symbol;fillColor=#FF0000;strokeColor=#FF0000;fontColor=#ffffff;shadow=0;perimeterSpacing=0;gradientColor=none;gradientDirection=radial;dashed=1;opacity=75;" parent="1" vertex="1">
          <mxGeometry x="279.8" y="409" width="100" height="100" as="geometry" />
        </mxCell>
        <mxCell id="JtyEeGDUWGG5GrNTImme-139" value="Cloudflare Requests Content From CloudFront Domain" style="text;html=1;align=center;verticalAlign=middle;whiteSpace=wrap;rounded=0;" parent="1" vertex="1">
          <mxGeometry x="173.54999999999998" y="590" width="101.8" height="70" as="geometry" />
        </mxCell>
        <mxCell id="JtyEeGDUWGG5GrNTImme-140" value="" style="shape=flexArrow;endArrow=classic;html=1;rounded=0;fillColor=#000000;" parent="1" edge="1">
          <mxGeometry width="50" height="50" relative="1" as="geometry">
            <mxPoint x="330.15999999999997" y="520" as="sourcePoint" />
            <mxPoint x="330" y="610" as="targetPoint" />
          </mxGeometry>
        </mxCell>
        <mxCell id="JtyEeGDUWGG5GrNTImme-143" value="" style="curved=1;endArrow=classic;html=1;rounded=0;shape=flexArrow;fillColor=#000000;" parent="1" edge="1">
          <mxGeometry width="50" height="50" relative="1" as="geometry">
            <mxPoint x="520" y="640" as="sourcePoint" />
            <mxPoint x="548.97" y="330" as="targetPoint" />
            <Array as="points">
              <mxPoint x="550" y="640" />
              <mxPoint x="548.97" y="570" />
            </Array>
          </mxGeometry>
        </mxCell>
        <mxCell id="JtyEeGDUWGG5GrNTImme-144" value="CloudFront Requests Files From S3 Bucket" style="text;html=1;align=center;verticalAlign=middle;whiteSpace=wrap;rounded=0;" parent="1" vertex="1">
          <mxGeometry x="470" y="460" width="70" height="70" as="geometry" />
        </mxCell>
        <mxCell id="JtyEeGDUWGG5GrNTImme-145" value="" style="curved=1;endArrow=classic;html=1;rounded=0;shape=flexArrow;fillColor=#000000;" parent="1" edge="1">
          <mxGeometry width="50" height="50" relative="1" as="geometry">
            <mxPoint x="580" y="330" as="sourcePoint" />
            <mxPoint x="520" y="700" as="targetPoint" />
            <Array as="points">
              <mxPoint x="580" y="700" />
            </Array>
          </mxGeometry>
        </mxCell>
        <mxCell id="JtyEeGDUWGG5GrNTImme-146" value="&lt;font&gt;Content Served&lt;/font&gt;" style="text;html=1;align=center;verticalAlign=middle;whiteSpace=wrap;rounded=0;" parent="1" vertex="1">
          <mxGeometry x="515" y="720" width="90" height="20" as="geometry" />
        </mxCell>
        <mxCell id="JtyEeGDUWGG5GrNTImme-147" value="" style="shape=flexArrow;endArrow=classic;html=1;rounded=0;fillColor=#000000;entryX=0.983;entryY=0.636;entryDx=0;entryDy=0;entryPerimeter=0;" parent="1" edge="1">
          <mxGeometry width="50" height="50" relative="1" as="geometry">
            <mxPoint x="262.77" y="710.04" as="sourcePoint" />
            <mxPoint x="187.30499999999986" y="710" as="targetPoint" />
            <Array as="points">
              <mxPoint x="237.27" y="710.04" />
            </Array>
          </mxGeometry>
        </mxCell>
        <mxCell id="JtyEeGDUWGG5GrNTImme-151" value="Content Served" style="text;html=1;align=center;verticalAlign=middle;whiteSpace=wrap;rounded=0;" parent="1" vertex="1">
          <mxGeometry x="178.20000000000002" y="730" width="92.5" height="20" as="geometry" />
        </mxCell>
        <mxCell id="JtyEeGDUWGG5GrNTImme-165" value="If User Directly Visits CloudFront Domain" style="text;html=1;align=center;verticalAlign=middle;whiteSpace=wrap;rounded=0;" parent="1" vertex="1">
          <mxGeometry x="340" y="520" width="100" height="70" as="geometry" />
        </mxCell>
        <mxCell id="JtyEeGDUWGG5GrNTImme-167" value="If User Visits schombe.me" style="text;html=1;align=center;verticalAlign=middle;whiteSpace=wrap;rounded=0;" parent="1" vertex="1">
          <mxGeometry x="40" y="550" width="71" height="30" as="geometry" />
        </mxCell>
        <mxCell id="1HRVX4znt1SpSSwOG6BB-1" value="" style="endArrow=classic;html=1;rounded=0;shape=flexArrow;fillColor=#000000;" edge="1" parent="1">
          <mxGeometry width="50" height="50" relative="1" as="geometry">
            <mxPoint x="389.8" y="101.21000000000001" as="sourcePoint" />
            <mxPoint x="509.8" y="101.21000000000001" as="targetPoint" />
          </mxGeometry>
        </mxCell>
        <mxCell id="1HRVX4znt1SpSSwOG6BB-2" value="" style="group" vertex="1" connectable="0" parent="1">
          <mxGeometry x="520" y="47" width="80" height="100" as="geometry" />
        </mxCell>
        <mxCell id="JtyEeGDUWGG5GrNTImme-14" value="" style="shape=note;whiteSpace=wrap;html=1;backgroundOutline=1;darkOpacity=0.05;" parent="1HRVX4znt1SpSSwOG6BB-2" vertex="1">
          <mxGeometry width="80" height="100" as="geometry" />
        </mxCell>
        <mxCell id="JtyEeGDUWGG5GrNTImme-121" value="" style="verticalLabelPosition=bottom;sketch=0;aspect=fixed;html=1;verticalAlign=top;strokeColor=none;align=center;outlineConnect=0;shape=mxgraph.citrix.process;" parent="1HRVX4znt1SpSSwOG6BB-2" vertex="1">
          <mxGeometry x="10" y="33" width="52" height="62" as="geometry" />
        </mxCell>
        <mxCell id="1HRVX4znt1SpSSwOG6BB-3" value="" style="shape=flexArrow;endArrow=classic;html=1;rounded=0;fillColor=#000000;" edge="1" parent="1">
          <mxGeometry width="50" height="50" relative="1" as="geometry">
            <mxPoint x="387.3" y="280" as="sourcePoint" />
            <mxPoint x="507.3" y="280.34000000000003" as="targetPoint" />
          </mxGeometry>
        </mxCell>
        <mxCell id="1HRVX4znt1SpSSwOG6BB-7" value="Me" style="text;html=1;align=center;verticalAlign=middle;whiteSpace=wrap;rounded=0;" vertex="1" parent="1">
          <mxGeometry x="94.9" y="27" width="60" height="30" as="geometry" />
        </mxCell>
      </root>
    </mxGraphModel>
  </diagram>
</mxfile>
